<svg width="32" height="32" viewBox="0 0 32 32" fill="none" xmlns="http://www.w3.org/2000/svg">
<path d="M27.6007 0.333496H9.53398V31.6668H27.6673C28.2673 31.6668 28.734 31.2002 28.734 30.6002V1.40016C28.734 0.800163 28.2007 0.333496 27.6007 0.333496ZM22.0007 10.9335C22.0007 11.5335 21.6007 12.0002 21.0673 12.2002C19.534 12.7335 18.4673 14.1335 18.4673 15.8002V16.2002C18.4673 17.8668 19.534 19.3335 21.0673 19.8002C21.6007 20.0002 22.0007 20.4668 22.0007 21.0668V24.6668C22.0007 25.6002 21.0673 26.2668 20.2006 25.8668L19.334 25.6002C16.6673 24.5335 14.934 21.6668 14.934 19.0002V13.1335C14.934 10.4668 16.6673 7.5335 19.334 6.5335L20.2006 6.20016C21.0673 5.7335 22.0007 6.40016 22.0007 7.3335V10.9335ZM7.20065 31.6668V0.333496H4.40065C3.80065 0.333496 3.33398 0.800163 3.33398 1.40016V30.5335C3.33398 31.1335 3.80065 31.6002 4.40065 31.6002H7.20065V31.6668Z" fill="#D1D1D1"/>
</svg>
