<svg width="32" height="32" viewBox="0 0 32 32" fill="none" xmlns="http://www.w3.org/2000/svg">
<path d="M14.6673 5.3335V10.6668C14.6673 11.7277 14.2459 12.7451 13.4957 13.4953C12.7456 14.2454 11.7282 14.6668 10.6673 14.6668H5.33398C4.27312 14.6668 3.2557 14.2454 2.50556 13.4953C1.75541 12.7451 1.33398 11.7277 1.33398 10.6668V5.3335C1.33398 4.27263 1.75541 3.25521 2.50556 2.50507C3.2557 1.75492 4.27312 1.3335 5.33398 1.3335H10.6673C11.7282 1.3335 12.7456 1.75492 13.4957 2.50507C14.2459 3.25521 14.6673 4.27263 14.6673 5.3335ZM26.6673 1.3335H21.334C20.2731 1.3335 19.2557 1.75492 18.5056 2.50507C17.7554 3.25521 17.334 4.27263 17.334 5.3335V10.6668C17.334 11.7277 17.7554 12.7451 18.5056 13.4953C19.2557 14.2454 20.2731 14.6668 21.334 14.6668H26.6673C27.7282 14.6668 28.7456 14.2454 29.4957 13.4953C30.2459 12.7451 30.6673 11.7277 30.6673 10.6668V5.3335C30.6673 4.27263 30.2459 3.25521 29.4957 2.50507C28.7456 1.75492 27.7282 1.3335 26.6673 1.3335ZM10.6673 17.3335H5.33398C4.27312 17.3335 3.2557 17.7549 2.50556 18.5051C1.75541 19.2552 1.33398 20.2726 1.33398 21.3335V26.6668C1.33398 27.7277 1.75541 28.7451 2.50556 29.4953C3.2557 30.2454 4.27312 30.6668 5.33398 30.6668H10.6673C11.7282 30.6668 12.7456 30.2454 13.4957 29.4953C14.2459 28.7451 14.6673 27.7277 14.6673 26.6668V21.3335C14.6673 20.2726 14.2459 19.2552 13.4957 18.5051C12.7456 17.7549 11.7282 17.3335 10.6673 17.3335ZM26.6673 17.3335H21.334C20.2731 17.3335 19.2557 17.7549 18.5056 18.5051C17.7554 19.2552 17.334 20.2726 17.334 21.3335V26.6668C17.334 27.7277 17.7554 28.7451 18.5056 29.4953C19.2557 30.2454 20.2731 30.6668 21.334 30.6668H26.6673C27.7282 30.6668 28.7456 30.2454 29.4957 29.4953C30.2459 28.7451 30.6673 27.7277 30.6673 26.6668V21.3335C30.6673 20.2726 30.2459 19.2552 29.4957 18.5051C28.7456 17.7549 27.7282 17.3335 26.6673 17.3335Z" fill="#D1D1D1"/>
</svg>
