<svg width="32" height="32" viewBox="0 0 32 32" fill="none" xmlns="http://www.w3.org/2000/svg">
<path d="M15.9996 2C14.9735 2 13.9469 2.39644 13.1658 3.17769L5.24818 11.2789C3.73907 12.7882 2.84766 13.6886 2.40653 14.9116C1.97421 16.1102 2.0003 17.5098 2.0003 20.0051V25.9971C2.0003 28.223 3.80363 29.9989 6.00205 29.9989H9.9999L9.99795 21.9973C9.99652 19.7986 11.7816 17.9994 14.0036 17.9994H17.9956C20.2176 17.9994 22.0026 19.7986 22.0013 21.9973L21.9993 29.9989H25.9971C28.1955 29.9989 29.9988 28.223 29.9988 25.9971V20.0051C29.9988 17.5098 30.0249 16.1102 29.5926 14.9116C29.1515 13.6886 28.2601 12.7882 26.751 11.2789L18.8334 3.17769C18.0523 2.39644 17.0256 2 15.9996 2ZM14.0036 20.0012C12.9018 20.0012 11.9994 20.872 11.9998 21.9973L12.0018 29.9989H19.9975L19.9995 21.9973C19.9999 20.872 19.0975 20.0012 17.9957 20.0012H14.0036Z" fill="#D1D1D1"/>
</svg>
