<svg width="32" height="32" viewBox="0 0 32 32" fill="none" xmlns="http://www.w3.org/2000/svg">
<path d="M25.334 1.3335H6.66732C6.34782 1.33717 6.04027 1.45546 5.80065 1.66683C6.7515 2.00136 7.58808 2.59851 8.21344 3.38905C8.83879 4.1796 9.22732 5.13117 9.33398 6.1335C9.35437 6.31069 9.35437 6.48964 9.33398 6.66683V29.3335C9.33335 29.5885 9.40587 29.8384 9.54294 30.0534C9.68001 30.2685 9.87588 30.4397 10.1073 30.5468C10.3393 30.6536 10.5971 30.6916 10.85 30.6561C11.1029 30.6206 11.3403 30.5133 11.534 30.3468L15.334 27.0935L19.134 30.3468C19.3755 30.5534 19.6828 30.6669 20.0007 30.6669C20.3185 30.6669 20.6258 30.5534 20.8673 30.3468L24.6673 27.0935L28.4673 30.3468C28.7088 30.5534 29.0162 30.6669 29.334 30.6668C29.5269 30.6655 29.7175 30.6246 29.894 30.5468C30.1254 30.4397 30.3213 30.2685 30.4584 30.0534C30.5954 29.8384 30.6679 29.5885 30.6673 29.3335V6.66683C30.6673 5.25234 30.1054 3.89579 29.1052 2.89559C28.105 1.8954 26.7485 1.3335 25.334 1.3335ZM24.0007 20.0002H16.0007C15.647 20.0002 15.3079 19.8597 15.0578 19.6096C14.8078 19.3596 14.6673 19.0205 14.6673 18.6668C14.6673 18.3132 14.8078 17.9741 15.0578 17.724C15.3079 17.474 15.647 17.3335 16.0007 17.3335H24.0007C24.3543 17.3335 24.6934 17.474 24.9435 17.724C25.1935 17.9741 25.334 18.3132 25.334 18.6668C25.334 19.0205 25.1935 19.3596 24.9435 19.6096C24.6934 19.8597 24.3543 20.0002 24.0007 20.0002ZM24.0007 14.6668H16.0007C15.647 14.6668 15.3079 14.5264 15.0578 14.2763C14.8078 14.0263 14.6673 13.6871 14.6673 13.3335C14.6673 12.9799 14.8078 12.6407 15.0578 12.3907C15.3079 12.1406 15.647 12.0002 16.0007 12.0002H24.0007C24.3543 12.0002 24.6934 12.1406 24.9435 12.3907C25.1935 12.6407 25.334 12.9799 25.334 13.3335C25.334 13.6871 25.1935 14.0263 24.9435 14.2763C24.6934 14.5264 24.3543 14.6668 24.0007 14.6668ZM24.0007 9.3335H16.0007C15.647 9.3335 15.3079 9.19302 15.0578 8.94297C14.8078 8.69292 14.6673 8.35379 14.6673 8.00016C14.6673 7.64654 14.8078 7.3074 15.0578 7.05735C15.3079 6.80731 15.647 6.66683 16.0007 6.66683H24.0007C24.3543 6.66683 24.6934 6.80731 24.9435 7.05735C25.1935 7.3074 25.334 7.64654 25.334 8.00016C25.334 8.35379 25.1935 8.69292 24.9435 8.94297C24.6934 9.19302 24.3543 9.3335 24.0007 9.3335ZM6.66732 6.66683V17.3335H2.66732C2.3137 17.3335 1.97456 17.193 1.72451 16.943C1.47446 16.6929 1.33398 16.3538 1.33398 16.0002V6.66683C1.33398 6.48016 1.33398 6.30683 1.33398 6.1335C1.40471 5.42625 1.75349 4.77607 2.30359 4.32598C2.8537 3.8759 3.56007 3.66277 4.26732 3.7335C4.97456 3.80422 5.62474 4.153 6.07483 4.70311C6.52492 5.25321 6.73804 5.95959 6.66732 6.66683Z" fill="#D1D1D1"/>
</svg>
